<?xml version="1.0" encoding="utf-8"?>
<!-- Generator: Adobe Illustrator 25.3.1, SVG Export Plug-In . SVG Version: 6.00 Build 0)  -->
<svg version="1.1" xmlns="http://www.w3.org/2000/svg" xmlns:xlink="http://www.w3.org/1999/xlink" x="0px" y="0px"
	 viewBox="0 0 369.94 200" style="enable-background:new 0 0 369.94 200;" xml:space="preserve">
<style type="text/css">
	.st0{display:none;}
	.st1{display:inline;fill:#181A1E;}
	.st2{display:inline;fill:#212325;}
	.st3{display:inline;fill:#ECECEC;}
	.st4{display:inline;fill:#D6D6D6;}
	.st5{display:inline;fill:#CF9E61;}
	.st6{display:inline;fill:#F5F2EB;}
	.st7{display:inline;}
	.st8{fill:#EFEBE0;}
	.st9{display:inline;fill:#ECE8DD;}
	.st10{display:inline;fill:#C09457;}
	.st11{display:inline;fill:#333333;}
	.st12{fill:#C09457;}
	.st13{fill:#FFFFFF;}
	.st14{fill:#262626;}
	.st15{fill:#D2C9B8;}
	.st16{fill:#333333;}
	.st17{fill:none;stroke:#FFFFFF;stroke-width:1.6667;stroke-miterlimit:10;}
	.st18{display:inline;fill:none;stroke:#FFFFFF;stroke-width:1.6667;stroke-miterlimit:10;}
	.st19{fill:none;stroke:#333333;stroke-width:0.75;stroke-miterlimit:10;}
	.st20{display:inline;fill:none;stroke:#333333;stroke-width:0.75;stroke-miterlimit:10;}
	.st21{fill:#E6E6E6;}
	.st22{display:inline;fill:#FF00FF;}
	.st23{fill:#EEEBE2;}
	.st24{fill:#FF00FF;}
	.st25{fill:#F5F2EB;}
	.st26{display:inline;fill:#DFDBCF;}
	.st27{font-family:'MyriadPro-Regular';}
	.st28{font-size:211.22px;}
	.st29{fill:none;}
</style>
<g id="References" class="st0">
</g>
<g id="Store" class="st0">
</g>
<g id="Assets" class="st0">
</g>
<g id="Brand_Ideas" class="st0">
	<text transform="matrix(1 0 0 1 -2330.5557 318.9985)" class="st7 st27 st28">The Renaissance Barbershop</text>
</g>
<g id="Logo">
	<g>
		<g>
			<g>
				<g>
					<g>
						<g>
							<g>
								<g>
									<g>
										<path class="st12" d="M65.14,143.15H1.66c-2.21,0-2.21,3.45,0,3.45h63.49V143.15z"/>
									</g>
								</g>
							</g>
						</g>
					</g>
				</g>
				<path class="st12" d="M304.8,143.15h63.49c2.21,0,2.21,3.45,0,3.45H304.8V143.15z"/>
			</g>
		</g>
		<g>
			<path class="st12" d="M6.47,122.64V0h22.35v122.64H6.47z M78.38,0L53.12,61.03l25.07,61.61h-24.1l-24.3-61.61L54.28,0H78.38z"/>
			<path class="st12" d="M92.38,0h22.35v122.64H92.38V0z"/>
			<path class="st12" d="M183.92,0h20.41v122.64h-20.99L157.1,41.4v81.24h-20.6V0h21.57l25.85,80.08V0z"/>
			<path class="st12" d="M289.26,37.71h-22.55V21.57c0-2.07-0.39-3.47-1.17-4.18c-0.78-0.71-2.2-1.07-4.28-1.07h-9.14
				c-2.07,0-3.5,0.36-4.28,1.07c-0.78,0.71-1.17,2.11-1.17,4.18v79.69c0,2.07,0.39,3.47,1.17,4.18c0.78,0.71,2.2,1.07,4.28,1.07
				h9.14c2.07,0,3.5-0.36,4.28-1.07c0.78-0.71,1.17-2.1,1.17-4.18V74.05H257V58.31h32.26v45.29c0,12.83-7.06,19.24-21.19,19.24
				h-22.74c-14.12,0-21.18-6.41-21.18-19.24V19.24C224.15,6.41,231.21,0,245.34,0h22.74c14.12,0,21.19,6.41,21.19,19.24V37.71z"/>
			<path class="st12" d="M346.79,100.29V74.05c0-2.07-0.39-3.47-1.17-4.18c-0.78-0.71-2.2-1.07-4.28-1.07H325.6
				c-13.35,0-20.02-6.48-20.02-19.44V19.24c0-12.83,7-19.24,20.99-19.24h21.38c13.99,0,20.99,6.41,20.99,19.24v17.1H346.4V22.35
				c0-2.07-0.39-3.47-1.17-4.18c-0.78-0.71-2.2-1.07-4.28-1.07h-7.39c-2.2,0-3.69,0.36-4.47,1.07c-0.78,0.71-1.17,2.11-1.17,4.18
				v24.68c0,2.07,0.39,3.47,1.17,4.18c0.78,0.71,2.27,1.07,4.47,1.07h15.35c13.61,0,20.41,6.35,20.41,19.05v32.07
				c0,12.83-7.06,19.24-21.19,19.24h-20.99c-14.12,0-21.18-6.41-21.18-19.24V86.49h22.35v13.8c0,2.07,0.39,3.47,1.17,4.18
				c0.78,0.71,2.27,1.07,4.47,1.07h7.39c2.07,0,3.5-0.36,4.28-1.07C346.4,103.76,346.79,102.36,346.79,100.29z"/>
		</g>
		<g>
			<path class="st12" d="M54.1,165.19l13.24-4.53c4.01-1.37,6.64-0.24,7.88,3.4l2.57,7.5c0.79,2.32,0.51,4-0.86,5.04
				c1.72-0.01,2.95,1.05,3.68,3.18l2.8,8.16c1.25,3.64-0.13,6.15-4.14,7.52L66.03,200L54.1,165.19z M71.66,174.16l-2.49-7.28
				c-0.2-0.59-0.45-0.95-0.74-1.07c-0.29-0.13-0.75-0.08-1.37,0.13l-5.02,1.72l3.51,10.26l5.02-1.72c0.63-0.21,1.01-0.46,1.16-0.74
				C71.89,175.18,71.86,174.75,71.66,174.16z M76.89,189.44l-2.63-7.67c-0.2-0.59-0.45-0.95-0.74-1.07
				c-0.29-0.13-0.75-0.08-1.37,0.13l-5.02,1.72l3.65,10.65l5.02-1.72c0.63-0.21,1.01-0.46,1.16-0.74
				C77.12,190.46,77.09,190.03,76.89,189.44z"/>
			<path class="st12" d="M104.72,189.13l-2.97-7.17l-7.87,1.69l0.35,7.74l-6.56,1.41l-0.48-37.53l8.84-1.9l15.31,34.34
				L104.72,189.13z M93.67,178.5l6.1-1.31l-6.83-16.54L93.67,178.5z"/>
			<path class="st12" d="M119.15,172.18l1.94,14.21l-6.64,0.91l-4.98-36.45l13.4-1.83c4.2-0.57,6.56,1.05,7.08,4.86l1.48,10.8
				c0.43,3.16-0.72,5.2-3.46,6.12l8.03,13.56l-7.16,0.98l-7.49-13.45L119.15,172.18z M116.8,155.03l1.67,12.25l4.8-0.66
				c0.62-0.08,1.03-0.25,1.23-0.49c0.2-0.24,0.26-0.67,0.18-1.29l-1.25-9.13c-0.08-0.62-0.26-1.01-0.52-1.19
				c-0.26-0.18-0.7-0.23-1.31-0.14L116.8,155.03z"/>
			<path class="st12" d="M136.54,147.4l13.95-1.07c4.22-0.32,6.48,1.43,6.78,5.27l0.6,7.91c0.19,2.44-0.51,4-2.1,4.66
				c1.67,0.42,2.59,1.75,2.76,4l0.66,8.6c0.29,3.84-1.67,5.92-5.9,6.24l-13.95,1.07L136.54,147.4z M151.28,160.48l-0.59-7.67
				c-0.05-0.62-0.2-1.03-0.44-1.22c-0.25-0.19-0.7-0.27-1.36-0.22l-5.29,0.4l0.83,10.81l5.29-0.4c0.66-0.05,1.1-0.19,1.31-0.42
				C151.24,161.53,151.33,161.1,151.28,160.48z M152.51,176.59l-0.62-8.08c-0.05-0.62-0.2-1.03-0.44-1.22
				c-0.25-0.19-0.7-0.27-1.36-0.22l-5.29,0.4l0.86,11.22l5.29-0.4c0.66-0.05,1.1-0.19,1.31-0.42
				C152.47,177.63,152.56,177.21,152.51,176.59z"/>
			<path class="st12" d="M171.66,177l11.19-0.31l0.14,5.13l-17.95,0.5l-1.02-36.78l17.49-0.49l0.14,5.13l-10.72,0.3l0.28,10.2
				l9.03-0.25l0.14,5.19l-9.03,0.25L171.66,177z"/>
			<path class="st12" d="M193.97,167.58l-0.25,14.34l-6.7-0.12l0.64-36.79l13.53,0.24c4.24,0.07,6.32,2.03,6.25,5.88l-0.19,10.9
				c-0.06,3.19-1.51,5.03-4.35,5.52l5.87,14.62l-7.23-0.13l-5.35-14.44L193.97,167.58z M194.27,150.26l-0.22,12.36l4.84,0.08
				c0.62,0.01,1.05-0.09,1.29-0.3c0.24-0.21,0.36-0.63,0.37-1.25l0.16-9.21c0.01-0.62-0.1-1.04-0.33-1.26
				c-0.23-0.22-0.66-0.33-1.28-0.34L194.27,150.26z"/>
			<path class="st12" d="M234.15,177.29l0.68-7.84c0.05-0.62-0.03-1.05-0.24-1.28c-0.21-0.23-0.63-0.38-1.25-0.43l-4.71-0.41
				c-3.99-0.35-5.81-2.46-5.48-6.33l0.78-9c0.33-3.83,2.59-5.57,6.77-5.2l6.39,0.56c4.18,0.36,6.11,2.46,5.77,6.3l-0.45,5.11
				l-6.74-0.59l0.36-4.18c0.05-0.62-0.03-1.05-0.24-1.28c-0.21-0.23-0.63-0.38-1.25-0.43l-2.21-0.19c-0.66-0.06-1.11,0.01-1.36,0.2
				c-0.25,0.19-0.4,0.6-0.46,1.22l-0.64,7.38c-0.05,0.62,0.03,1.05,0.24,1.28c0.21,0.23,0.65,0.38,1.31,0.44l4.59,0.4
				c4.07,0.35,5.93,2.43,5.6,6.22l-0.84,9.58c-0.33,3.83-2.61,5.57-6.83,5.2l-6.27-0.55c-4.22-0.37-6.16-2.47-5.83-6.3l0.44-5.05
				l6.68,0.58l-0.36,4.12c-0.05,0.62,0.03,1.05,0.24,1.28c0.21,0.23,0.65,0.38,1.31,0.44l2.21,0.19c0.62,0.05,1.05-0.02,1.31-0.21
				C233.94,178.31,234.09,177.91,234.15,177.29z"/>
			<path class="st12" d="M264.68,150.78l6.63,0.99l-5.41,36.39l-6.63-0.99l2.31-15.51l-7.5-1.12l-2.31,15.51l-6.63-0.99l5.41-36.39
				l6.63,0.99l-2.35,15.8l7.5,1.12L264.68,150.78z"/>
			<path class="st12" d="M285.6,154.72l6.93,1.63c4.12,0.97,5.75,3.33,4.87,7.07L291.62,188c-0.88,3.75-3.38,5.13-7.51,4.17
				l-6.93-1.63c-4.13-0.97-5.75-3.33-4.87-7.07l5.77-24.58C278.97,155.14,281.47,153.76,285.6,154.72z M285.3,185.56l5.35-22.76
				c0.14-0.6,0.12-1.04-0.05-1.3c-0.18-0.26-0.57-0.46-1.17-0.61l-3.01-0.71c-0.64-0.15-1.1-0.15-1.38,0.01
				c-0.28,0.16-0.49,0.54-0.63,1.14l-5.35,22.76c-0.14,0.61-0.12,1.04,0.05,1.3c0.18,0.26,0.59,0.47,1.23,0.62l3.01,0.71
				c0.61,0.14,1.05,0.14,1.32-0.02C284.95,186.55,285.16,186.17,285.3,185.56z"/>
			<path class="st12" d="M307.89,160.45l12.66,4.76c3.97,1.49,5.27,4.04,3.92,7.64l-4.13,10.97c-1.35,3.6-4.02,4.66-7.98,3.17
				l-6.39-2.4l-4.76,12.66l-6.28-2.36L307.89,160.45z M314.4,180.59l3.47-9.22c0.22-0.58,0.26-1.01,0.11-1.3
				c-0.14-0.28-0.51-0.53-1.09-0.75l-4.53-1.7l-4.58,12.17l4.53,1.7c0.58,0.22,1.02,0.27,1.31,0.15
				C313.92,181.52,314.18,181.17,314.4,180.59z"/>
		</g>
	</g>
</g>
</svg>
