<?xml version="1.0" encoding="utf-8"?>
<!-- Generator: Adobe Illustrator 25.3.1, SVG Export Plug-In . SVG Version: 6.00 Build 0)  -->
<svg version="1.1" xmlns="http://www.w3.org/2000/svg" xmlns:xlink="http://www.w3.org/1999/xlink" x="0px" y="0px"
	 viewBox="0 0 410.14 200" style="enable-background:new 0 0 410.14 200;" xml:space="preserve">
<style type="text/css">
	.st0{display:none;}
	.st1{display:inline;fill:#181A1E;}
	.st2{display:inline;fill:#212325;}
	.st3{display:inline;fill:#ECECEC;}
	.st4{display:inline;fill:#D6D6D6;}
	.st5{display:inline;fill:#CF9E61;}
	.st6{display:inline;fill:#F5F2EB;}
	.st7{display:inline;}
	.st8{fill:#EFEBE0;}
	.st9{display:inline;fill:#ECE8DD;}
	.st10{display:inline;fill:#C09457;}
	.st11{display:inline;fill:#333333;}
	.st12{fill:#C09457;}
	.st13{fill:#FFFFFF;}
	.st14{fill:#262626;}
	.st15{fill:#D2C9B8;}
	.st16{fill:#333333;}
	.st17{fill:none;stroke:#FFFFFF;stroke-width:1.6667;stroke-miterlimit:10;}
	.st18{display:inline;fill:none;stroke:#FFFFFF;stroke-width:1.6667;stroke-miterlimit:10;}
	.st19{fill:none;stroke:#333333;stroke-width:0.75;stroke-miterlimit:10;}
	.st20{display:inline;fill:none;stroke:#333333;stroke-width:0.75;stroke-miterlimit:10;}
	.st21{fill:#E6E6E6;}
	.st22{display:inline;fill:#FF00FF;}
	.st23{fill:#EEEBE2;}
	.st24{fill:#FF00FF;}
	.st25{fill:#F5F2EB;}
	.st26{display:inline;fill:#DFDBCF;}
	.st27{font-family:'MyriadPro-Regular';}
	.st28{font-size:211.22px;}
	.st29{fill:none;}
</style>
<g id="References" class="st0">
</g>
<g id="Store" class="st0">
</g>
<g id="Assets" class="st0">
</g>
<g id="Brand_Ideas" class="st0">
	<text transform="matrix(1 0 0 1 -2310.4583 318.9985)" class="st7 st27 st28">The Renaissance Barbershop</text>
</g>
<g id="Logo">
	<g>
		<g>
			<g>
				<g>
					<g>
						<g>
							<g>
								<g>
									<path class="st12" d="M72.22,136.98H1.84c-2.45,0-2.45,3.82,0,3.82h70.38V136.98z"/>
								</g>
							</g>
						</g>
					</g>
				</g>
			</g>
			<path class="st12" d="M337.92,136.98h70.38c2.45,0,2.45,3.82,0,3.82h-70.38V136.98z"/>
		</g>
		<path class="st12" d="M21.22,114.24H2.76V0h22.81l19.19,67.89L63.95,0h22.81v114.24H68.47v-80.2l-15.21,55.4H36.43L21.22,34.22
			V114.24z"/>
		<path class="st12" d="M153.02,114.24l-4.35-23.72h-24.98l-3.98,23.72H98.89L121.88,0h28.06l24.08,114.24H153.02z M126.41,74.77
			h19.37l-9.96-54.67L126.41,74.77z"/>
		<path class="st12" d="M245.71,37.84h-21V20.1c0-1.93-0.36-3.23-1.09-3.89c-0.72-0.66-2.05-1-3.98-1h-8.51
			c-1.93,0-3.26,0.33-3.98,1c-0.72,0.66-1.09,1.96-1.09,3.89v74.23c0,1.93,0.36,3.23,1.09,3.89c0.72,0.66,2.05,1,3.98,1h8.51
			c1.93,0,3.26-0.33,3.98-1c0.72-0.66,1.09-1.96,1.09-3.89V76.94h21v19.55c0,11.95-6.58,17.92-19.73,17.92H204.8
			c-13.16,0-19.73-5.97-19.73-17.92V17.92C185.06,5.97,191.64,0,204.8,0h21.18c13.15,0,19.73,5.97,19.73,17.92V37.84z"/>
		<path class="st12" d="M306.54,0h20.82v114.24h-20.82v-48.7h-23.54v48.7h-20.82V0h20.82v49.61h23.54V0z"/>
		<path class="st12" d="M365.56,0h22.09c13.15,0,19.73,5.97,19.73,17.92v78.39c0,11.95-6.58,17.92-19.73,17.92h-22.09
			c-13.16,0-19.73-5.97-19.73-17.92V17.92C345.83,5.97,352.4,0,365.56,0z M386.56,93.42v-72.6c0-1.93-0.36-3.23-1.09-3.89
			c-0.72-0.66-2.05-1-3.98-1h-9.6c-2.05,0-3.44,0.33-4.16,1c-0.72,0.66-1.09,1.96-1.09,3.89v72.6c0,1.93,0.36,3.23,1.09,3.89
			c0.72,0.66,2.11,1,4.16,1h9.6c1.93,0,3.26-0.33,3.98-1C386.2,96.65,386.56,95.35,386.56,93.42z"/>
		<path class="st12" d="M59.98,161.41l14.68-5.03c4.44-1.52,7.36-0.27,8.74,3.77l2.85,8.32c0.88,2.57,0.56,4.43-0.96,5.59
			c1.91-0.02,3.27,1.16,4.08,3.52l3.1,9.05c1.38,4.04-0.15,6.82-4.59,8.34L73.2,200L59.98,161.41z M79.44,171.35l-2.77-8.07
			c-0.22-0.65-0.5-1.05-0.82-1.19c-0.32-0.14-0.83-0.09-1.52,0.15l-5.57,1.91l3.9,11.37l5.57-1.91c0.69-0.24,1.12-0.51,1.29-0.82
			C79.7,172.48,79.67,172,79.44,171.35z M85.25,188.29l-2.91-8.5c-0.22-0.65-0.5-1.05-0.82-1.19c-0.32-0.14-0.83-0.09-1.52,0.15
			l-5.57,1.91l4.04,11.8l5.57-1.91c0.69-0.24,1.12-0.51,1.29-0.82C85.5,189.42,85.47,188.94,85.25,188.29z"/>
		<path class="st12" d="M116.09,187.95l-3.3-7.95l-8.72,1.87l0.39,8.58L97.2,192l-0.54-41.6l9.8-2.1l16.97,38.08L116.09,187.95z
			 M103.84,176.16l6.76-1.45l-7.57-18.34L103.84,176.16z"/>
		<path class="st12" d="M132.09,169.16l2.15,15.76l-7.37,1.01l-5.53-40.41l14.86-2.03c4.65-0.64,7.27,1.16,7.85,5.39l1.64,11.98
			c0.48,3.5-0.8,5.76-3.83,6.79l8.91,15.03l-7.94,1.09l-8.3-14.92L132.09,169.16z M129.49,150.14l1.86,13.58l5.32-0.73
			c0.68-0.09,1.14-0.27,1.36-0.54c0.22-0.27,0.29-0.75,0.2-1.43l-1.38-10.12c-0.09-0.68-0.28-1.12-0.57-1.32
			c-0.29-0.2-0.77-0.25-1.46-0.16L129.49,150.14z"/>
		<path class="st12" d="M151.37,141.68l15.47-1.18c4.68-0.36,7.19,1.59,7.51,5.84l0.67,8.77c0.21,2.71-0.57,4.43-2.33,5.17
			c1.85,0.46,2.87,1.94,3.06,4.43l0.73,9.54c0.32,4.25-1.86,6.56-6.54,6.92l-15.47,1.18L151.37,141.68z M167.72,156.19l-0.65-8.51
			c-0.05-0.69-0.22-1.14-0.49-1.36c-0.28-0.22-0.78-0.3-1.51-0.24l-5.87,0.45l0.92,11.99l5.87-0.45c0.73-0.06,1.22-0.21,1.46-0.47
			C167.68,157.35,167.77,156.88,167.72,156.19z M169.08,174.04l-0.68-8.96c-0.05-0.69-0.22-1.14-0.49-1.36
			c-0.28-0.22-0.78-0.3-1.51-0.24l-5.87,0.45l0.95,12.44l5.87-0.45c0.73-0.06,1.22-0.21,1.45-0.47
			C169.04,175.2,169.13,174.73,169.08,174.04z"/>
		<path class="st12" d="M190.32,174.5l12.41-0.34l0.16,5.69l-19.9,0.55l-1.13-40.77l19.39-0.54l0.16,5.69l-11.89,0.33l0.31,11.31
			l10.02-0.28l0.16,5.75l-10.02,0.28L190.32,174.5z"/>
		<path class="st12" d="M215.04,164.05l-0.28,15.9l-7.43-0.13l0.71-40.78l15,0.26c4.7,0.08,7.01,2.26,6.93,6.52l-0.21,12.09
			c-0.06,3.53-1.67,5.57-4.83,6.12l6.51,16.21l-8.01-0.14l-5.93-16.01L215.04,164.05z M215.38,144.86l-0.24,13.7l5.36,0.09
			c0.69,0.01,1.17-0.1,1.43-0.33c0.26-0.23,0.4-0.69,0.41-1.38l0.18-10.21c0.01-0.69-0.11-1.15-0.36-1.4
			c-0.25-0.24-0.73-0.37-1.42-0.38L215.38,144.86z"/>
		<path class="st12" d="M259.59,174.82l0.76-8.69c0.06-0.69-0.03-1.16-0.27-1.42c-0.24-0.26-0.7-0.42-1.39-0.48l-5.22-0.45
			c-4.42-0.39-6.45-2.72-6.07-7.02l0.87-9.98c0.37-4.25,2.87-6.17,7.51-5.77l7.08,0.62c4.64,0.4,6.77,2.73,6.4,6.98l-0.49,5.67
			l-7.47-0.65l0.4-4.64c0.06-0.69-0.03-1.16-0.27-1.42c-0.24-0.26-0.7-0.42-1.39-0.48l-2.45-0.21c-0.73-0.06-1.23,0.01-1.51,0.23
			c-0.28,0.21-0.45,0.66-0.51,1.35l-0.71,8.18c-0.06,0.69,0.03,1.16,0.27,1.42c0.24,0.26,0.72,0.42,1.45,0.48l5.09,0.44
			c4.51,0.39,6.58,2.69,6.21,6.9l-0.93,10.63c-0.37,4.25-2.9,6.17-7.58,5.76l-6.96-0.61c-4.68-0.41-6.83-2.74-6.46-6.99l0.49-5.6
			l7.41,0.65l-0.4,4.57c-0.06,0.69,0.03,1.16,0.27,1.42c0.24,0.26,0.72,0.42,1.45,0.48l2.45,0.21c0.69,0.06,1.17-0.02,1.45-0.23
			C259.36,175.96,259.53,175.5,259.59,174.82z"/>
		<path class="st12" d="M293.44,145.43l7.35,1.09l-6,40.35l-7.35-1.09l2.56-17.2l-8.31-1.24l-2.56,17.2l-7.35-1.09l6-40.35
			l7.35,1.09l-2.61,17.52l8.31,1.24L293.44,145.43z"/>
		<path class="st12" d="M316.63,149.8l7.68,1.8c4.57,1.07,6.37,3.69,5.4,7.84l-6.4,27.25c-0.98,4.15-3.75,5.69-8.32,4.62l-7.68-1.8
			c-4.57-1.07-6.37-3.69-5.4-7.84l6.4-27.25C309.28,150.27,312.05,148.73,316.63,149.8z M316.3,183.99l5.93-25.24
			c0.16-0.67,0.14-1.15-0.06-1.44c-0.2-0.29-0.63-0.51-1.3-0.67l-3.34-0.78c-0.71-0.17-1.22-0.16-1.53,0.01
			c-0.31,0.17-0.54,0.59-0.7,1.26l-5.93,25.24c-0.16,0.67-0.14,1.15,0.06,1.44c0.2,0.29,0.65,0.52,1.37,0.69l3.34,0.78
			c0.67,0.16,1.16,0.15,1.47-0.02C315.91,185.09,316.14,184.66,316.3,183.99z"/>
		<path class="st12" d="M341.35,156.15l14.04,5.28c4.4,1.65,5.84,4.48,4.34,8.47l-4.58,12.16c-1.5,3.99-4.45,5.16-8.85,3.51
			l-7.08-2.66l-5.28,14.04l-6.96-2.62L341.35,156.15z M348.56,178.48l3.85-10.23c0.24-0.64,0.28-1.12,0.13-1.44
			c-0.16-0.31-0.56-0.59-1.21-0.83l-5.02-1.89l-5.08,13.49l5.02,1.89c0.65,0.24,1.13,0.3,1.46,0.17
			C348.03,179.51,348.31,179.12,348.56,178.48z"/>
	</g>
</g>
</svg>
