<?xml version="1.0" encoding="utf-8"?>
<!-- Generator: Adobe Illustrator 25.3.1, SVG Export Plug-In . SVG Version: 6.00 Build 0)  -->
<svg version="1.1" xmlns="http://www.w3.org/2000/svg" xmlns:xlink="http://www.w3.org/1999/xlink" x="0px" y="0px"
	 viewBox="0 0 103.46 128" style="enable-background:new 0 0 103.46 128;" xml:space="preserve">
<style type="text/css">
	.st0{display:none;}
	.st1{display:inline;fill:#181A1E;}
	.st2{display:inline;fill:#212325;}
	.st3{display:inline;fill:#ECECEC;}
	.st4{display:inline;fill:#D6D6D6;}
	.st5{display:inline;fill:#CF9E61;}
	.st6{display:inline;fill:#F5F2EB;}
	.st7{display:inline;}
	.st8{fill:#EFEBE0;}
	.st9{display:inline;fill:#ECE8DD;}
	.st10{display:inline;fill:#C09457;}
	.st11{display:inline;fill:#333333;}
	.st12{fill:#C09457;}
	.st13{fill:#FFFFFF;}
	.st14{fill:#262626;}
	.st15{fill:#D2C9B8;}
	.st16{fill:#333333;}
	.st17{fill:none;stroke:#FFFFFF;stroke-width:1.6667;stroke-miterlimit:10;}
	.st18{display:inline;fill:none;stroke:#FFFFFF;stroke-width:1.6667;stroke-miterlimit:10;}
	.st19{fill:none;stroke:#333333;stroke-width:0.75;stroke-miterlimit:10;}
	.st20{display:inline;fill:none;stroke:#333333;stroke-width:0.75;stroke-miterlimit:10;}
	.st21{fill:#E6E6E6;}
	.st22{display:inline;fill:#FF00FF;}
	.st23{fill:#EEEBE2;}
	.st24{fill:#FF00FF;}
	.st25{fill:#F5F2EB;}
	.st26{display:inline;fill:#DFDBCF;}
	.st27{fill:none;}
</style>
<g id="References" class="st0">
</g>
<g id="Store" class="st0">
</g>
<g id="Assets" class="st0">
</g>
<g id="Brand_Ideas" class="st0">
</g>
<g id="Logo">
	<g>
		<path class="st12" d="M1.84,32.04c0,0,6.7-8.04,25.48-8.49c18.77-0.45,35.75,1.48,35.75,1.48s11.37,2.85,15.3-1.55
			s19.12-9.77,18.22,5.88c0,0,13.85-12.07,2.23-23.24c-5.15-4.95-14.29-5.54-20.99-5.95c-9.85-0.6-19.46,0.59-29.2,1.47
			c-9.58,0.87-18.98,3.83-27.24,8.79C13.4,15.21,4.07,22.65,1.84,32.04z"/>
		<path class="st12" d="M14.8,93.71c0,0,10.73-12.51,10.73-29.5s14.3-13.41,14.3-13.41s6.7,1.34,6.7,10.73c0,0-0.27,4.03,6.12,3.36
			c6.39-0.68,4.61-11.4,4.61-11.4s-1.34-9.39,12.51-9.39c0,0-0.45-12.07-11.17-15.2S9.88,23.96,1.84,37.38S14.8,93.71,14.8,93.71z"
			/>
		<path class="st15" d="M46.53,73.6v30.36c0,0,31.73,29.08,41.12,23.27c9.39-5.81,8.04-17.88,8.04-17.88s-6.26,11.62-12.51,5.81
			c-6.26-5.81-3.51-9.96-12.03-14.37c-8.52-4.41-14.63-2.62-16.94-27.2H46.53z"/>
		<path class="st15" d="M71.14,88.81c0,0,1.52,9.82,14.15,4.9c12.63-4.92,14.35,1.38,14.35,1.38v5.71c0,0-11.55-2.62-20.05,2.3
			C71.11,108.01,71.14,88.81,71.14,88.81z"/>
	</g>
</g>
</svg>
